<svg xmlns="http://www.w3.org/2000/svg" viewBox="0 0 60 68"><path d="M46.8775,56.951c-.027-.079-.103-.148-.188-.162-.045-.01-.124-.007-.2,.061h-.003c-.016,.015-.031,.027-.043,.043l-.002,.003-.002,.002c-.804,1.018-2.127,2.303-3.882,2.641-1.599,.314-3.159-.113-4.509-1.241-.376-.307-.746-.646-1.104-.971-1.375-1.253-2.8-2.55-4.704-2.443-1.611,.092-3.054,1.32-3.671,3.055-.62-1.734-2.063-2.963-3.674-3.055-1.904-.105-3.328,1.19-4.704,2.443-.358,.325-.728,.664-1.104,.973-1.351,1.126-2.909,1.554-4.508,1.239-1.755-.338-3.082-1.625-3.884-2.643v-.002c-.014-.016-.03-.029-.045-.043h-.002c-.076-.067-.156-.07-.201-.061-.084,.014-.159,.082-.184,.162-.108,.34,1.018,3.514,2.729,5.21,2,1.982,4.115,3.165,6.471,3.616,2.652,.511,5.081,.127,6.831-1.075,1.097-.757,1.873-1.794,2.276-3.038,.401,1.244,1.176,2.281,2.273,3.038,1.245,.855,2.832,1.297,4.6,1.297,.718,0,1.467-.073,2.232-.222,2.354-.451,4.471-1.634,6.469-3.616,1.714-1.697,2.839-4.87,2.733-5.211h0Z"/><path d="M11.1445,24.13c-1.007-.268-1.912-.783-2.653-1.371-.53-.419-.954-.852-1.229-1.162-.139-.157-.24-.282-.301-.361-.029-.039-.049-.064-.059-.078l-.001,.001c-.864-1.231-2.58-1.545-3.838-.701-1.262,.845-1.583,2.53-.722,3.766,.102,.139,.993,1.412,2.672,2.75,1.537,1.218,3.846,2.531,6.796,2.733l37.389-.114c2.468-.396,4.43-1.544,5.786-2.62,1.68-1.337,2.572-2.611,2.674-2.75,.862-1.236,.538-2.921-.721-3.766-1.261-.844-2.978-.53-3.841,.702l-.001-.001c-.067,.098-.75,.983-1.792,1.758-.723,.541-1.575,.999-2.518,1.236v.004h-.012"/><path d="M48.7245,22.589v-6.438c0-9.718-9.685-14.151-18.553-14.151h-.231c-8.867,0-18.55,4.433-18.55,14.151v6.438H48.7245Z"/><path d="M24.9255,41.399c0-7.096,5.839-12.869,13.018-12.869s13.017,5.773,13.017,12.869c0,2.611-.793,5.042-2.15,7.072l5.322,5.105-.006,.006c.474,.475,.769,1.126,.769,1.847,0,1.451-1.19,2.628-2.658,2.628-.787,0-1.493-.34-1.979-.878l-5.215-5c-2.044,1.32-4.481,2.09-7.098,2.09-7.181-.001-13.02-5.775-13.02-12.87h0Zm2.017,0c0,5.998,4.935,10.875,11,10.875s11-4.878,11-10.875-4.935-10.875-11-10.875c-6.065,0-11,4.878-11,10.875h0Z"/><path d="M21.2205,43.469l-6.14,.994c-.966,.154-1.858-.598-1.996-1.685-.138-1.084,.531-2.09,1.493-2.246l6.143-.992c.086-.014,.171-.02,.254-.02,.861,0,1.614,.714,1.741,1.702,.137,1.086-.532,2.092-1.495,2.247h0Z"/><path d="M37.7905,34.816c4.305,0,7.794,2.864,7.794,6.399,0,3.531-3.489,6.397-7.794,6.397s-7.792-2.866-7.792-6.397c0-3.536,3.489-6.399,7.792-6.399h0Z"/><path d="M37.8475,37.247c2.989,0,5.414,1.989,5.414,4.443,0,2.451-2.425,4.442-5.414,4.442-2.987,0-5.409-1.991-5.409-4.442,0-2.454,2.422-4.443,5.409-4.443h0Z" fill="#fff"/><path d="M38.1335,41.555c1.648,0,2.984,1.096,2.984,2.45,0,1.352-1.335,2.448-2.984,2.448s-2.985-1.097-2.985-2.448c0-1.354,1.336-2.45,2.985-2.45h0Z"/></svg>
