<?xml version="1.0" encoding="utf-8"?>
<!DOCTYPE svg PUBLIC "-//W3C//DTD SVG 1.1//EN" "http://www.w3.org/Graphics/SVG/1.1/DTD/svg11.dtd">
<svg version="1.1" id="Ebene_1" xmlns="http://www.w3.org/2000/svg" xmlns:xlink="http://www.w3.org/1999/xlink" x="0px" y="0px"
	 width="56.282px" height="64px" viewBox="0.001 0 56.282 64" enable-background="new 0.001 0 56.282 64" xml:space="preserve">
<path class="fill-1" fill="#9CA5B2" d="M45.021,54.951c-0.027-0.079-0.103-0.148-0.188-0.162c-0.045-0.01-0.124-0.007-0.2,0.061c0,0,0,0-0.003,0
	c-0.016,0.015-0.031,0.027-0.043,0.043c0,0.003,0,0.003-0.002,0.003c0,0,0,0.002-0.002,0.002c-0.804,1.018-2.127,2.303-3.882,2.641
	c-1.599,0.314-3.159-0.113-4.509-1.241c-0.376-0.307-0.746-0.646-1.104-0.971c-1.375-1.253-2.8-2.55-4.704-2.443
	c-1.611,0.092-3.054,1.32-3.671,3.055c-0.62-1.734-2.063-2.963-3.674-3.055c-1.904-0.105-3.328,1.19-4.704,2.443
	c-0.358,0.325-0.728,0.664-1.104,0.973c-1.351,1.126-2.909,1.554-4.508,1.239c-1.755-0.338-3.082-1.625-3.884-2.643
	c0-0.002,0-0.002,0-0.002c-0.014-0.016-0.03-0.029-0.045-0.043H8.792c-0.076-0.067-0.156-0.07-0.201-0.061
	c-0.084,0.014-0.159,0.082-0.184,0.162c-0.108,0.34,1.018,3.514,2.729,5.21c2,1.982,4.115,3.165,6.471,3.616
	c2.652,0.511,5.081,0.127,6.831-1.075c1.097-0.757,1.873-1.794,2.276-3.038c0.401,1.244,1.176,2.281,2.273,3.038
	c1.245,0.855,2.832,1.297,4.6,1.297c0.718,0,1.467-0.073,2.232-0.222c2.354-0.451,4.471-1.634,6.469-3.616
	C44.002,58.465,45.127,55.292,45.021,54.951L45.021,54.951z"/>
<path class="fill-1" fill="#9CA5B2" d="M9.288,22.13c-1.007-0.268-1.912-0.783-2.653-1.371c-0.53-0.419-0.954-0.852-1.229-1.162
	c-0.139-0.157-0.24-0.282-0.301-0.361c-0.029-0.039-0.049-0.064-0.059-0.078l-0.001,0.001c-0.864-1.231-2.58-1.545-3.838-0.701
	c-1.262,0.845-1.583,2.53-0.722,3.766c0.102,0.139,0.993,1.412,2.672,2.75c1.537,1.218,3.846,2.531,6.796,2.733l37.389-0.114
	c2.468-0.396,4.43-1.544,5.786-2.62c1.68-1.337,2.572-2.611,2.674-2.75c0.862-1.236,0.538-2.921-0.721-3.766
	c-1.261-0.844-2.978-0.53-3.841,0.702l-0.001-0.001c-0.067,0.098-0.75,0.983-1.792,1.758c-0.723,0.541-1.575,0.999-2.518,1.236
	v0.004h-0.012 M46.868,20.589c0-1.361,0-3.395,0-6.438C46.868,4.433,37.183,0,28.315,0h-0.231c-8.867,0-18.55,4.433-18.55,14.151
	c0,3.044,0,5.076,0,6.438H46.868L46.868,20.589z"/>
<path class="fill-1" fill="#9CA5B2" d="M23.069,39.399c0-7.096,5.839-12.869,13.018-12.869c7.177,0,13.017,5.773,13.017,12.869
	c0,2.611-0.793,5.042-2.15,7.072l5.322,5.105l-0.006,0.006c0.474,0.475,0.769,1.126,0.769,1.847c0,1.451-1.19,2.628-2.658,2.628
	c-0.787,0-1.493-0.34-1.979-0.878l-5.215-5c-2.044,1.32-4.481,2.09-7.098,2.09C28.908,52.268,23.069,46.494,23.069,39.399
	L23.069,39.399z M25.086,39.399c0,5.998,4.935,10.875,11,10.875c6.065,0,11-4.878,11-10.875c0-5.997-4.935-10.875-11-10.875
	C30.021,28.524,25.086,33.402,25.086,39.399L25.086,39.399z"/>
<path class="fill-1" fill="#9CA5B2" d="M19.364,41.469l-6.14,0.994c-0.966,0.154-1.858-0.598-1.996-1.685c-0.138-1.084,0.531-2.09,1.493-2.246
	l6.143-0.992c0.086-0.014,0.171-0.02,0.254-0.02c0.861,0,1.614,0.714,1.741,1.702C20.996,40.308,20.327,41.314,19.364,41.469
	L19.364,41.469z"/>
<path class="fill-1" fill="#9CA5B2" d="M35.934,32.816c4.305,0,7.794,2.864,7.794,6.399c0,3.531-3.489,6.397-7.794,6.397
	c-4.303,0-7.792-2.866-7.792-6.397C28.142,35.679,31.631,32.816,35.934,32.816L35.934,32.816z"/>
<path class="fill-2" fill="#FFFFFF" d="M35.991,35.247c2.989,0,5.414,1.989,5.414,4.443c0,2.451-2.425,4.442-5.414,4.442
	c-2.987,0-5.409-1.991-5.409-4.442C30.582,37.236,33.004,35.247,35.991,35.247L35.991,35.247z"/>
<path class="fill-1" fill="#9CA5B2" d="M36.277,39.555c1.648,0,2.984,1.096,2.984,2.45c0,1.352-1.335,2.448-2.984,2.448s-2.985-1.097-2.985-2.448
	C33.292,40.651,34.628,39.555,36.277,39.555L36.277,39.555z"/>
</svg>
