<?xml version="1.0" encoding="utf-8"?>
<!-- Generator: Adobe Illustrator 15.1.0, SVG Export Plug-In . SVG Version: 6.00 Build 0)  -->
<!DOCTYPE svg PUBLIC "-//W3C//DTD SVG 1.1//EN" "http://www.w3.org/Graphics/SVG/1.1/DTD/svg11.dtd">
<svg version="1.1" id="Ebene_1" xmlns="http://www.w3.org/2000/svg" xmlns:xlink="http://www.w3.org/1999/xlink" x="0px" y="0px"
	 width="76.826px" height="87.358px" viewBox="0 0 76.826 87.358" enable-background="new 0 0 76.826 87.358" xml:space="preserve">
<path fill="#2A2427" d="M61.451,75.007c-0.037-0.107-0.139-0.202-0.254-0.221c-0.062-0.013-0.17-0.009-0.274,0.082c0,0,0,0-0.004,0
	c-0.021,0.02-0.043,0.037-0.059,0.059c0,0.004,0,0.004-0.003,0.004c0,0,0,0.003-0.003,0.003c-1.096,1.389-2.903,3.142-5.298,3.604
	c-2.183,0.429-4.312-0.155-6.155-1.694c-0.514-0.419-1.018-0.881-1.507-1.325c-1.878-1.71-3.822-3.481-6.421-3.335
	c-2.198,0.126-4.168,1.802-5.01,4.17c-0.846-2.368-2.816-4.044-5.015-4.17c-2.599-0.144-4.542,1.625-6.421,3.335
	c-0.489,0.444-0.993,0.906-1.507,1.328c-1.844,1.536-3.97,2.12-6.154,1.691c-2.396-0.462-4.206-2.218-5.301-3.606
	c0-0.004,0-0.004,0-0.004c-0.019-0.021-0.041-0.039-0.062-0.059H12c-0.104-0.091-0.213-0.095-0.274-0.082
	c-0.115,0.019-0.217,0.113-0.251,0.221c-0.148,0.465,1.39,4.797,3.726,7.112c2.73,2.705,5.617,4.32,8.832,4.936
	c3.621,0.697,6.936,0.174,9.324-1.468c1.497-1.032,2.556-2.448,3.107-4.146c0.548,1.698,1.605,3.114,3.103,4.146
	c1.699,1.168,3.865,1.771,6.28,1.771c0.979,0,2.002-0.101,3.047-0.303c3.213-0.615,6.102-2.23,8.829-4.936
	C60.062,79.804,61.597,75.472,61.451,75.007L61.451,75.007z"/>
<path d="M12.677,30.206c-1.375-0.366-2.609-1.069-3.622-1.871c-0.723-0.572-1.301-1.162-1.678-1.586
	c-0.189-0.214-0.327-0.385-0.41-0.493c-0.04-0.053-0.067-0.088-0.081-0.106l-0.001,0.001c-1.18-1.681-3.522-2.109-5.24-0.957
	c-1.722,1.153-2.161,3.454-0.985,5.14c0.14,0.19,1.355,1.928,3.648,3.753c2.098,1.663,5.25,3.455,9.276,3.732l51.035-0.156
	c3.369-0.541,6.046-2.107,7.898-3.576c2.293-1.825,3.511-3.563,3.649-3.753c1.177-1.686,0.735-3.987-0.984-5.14
	c-1.72-1.152-4.064-0.724-5.241,0.958l-0.002-0.002c-0.093,0.133-1.024,1.341-2.447,2.399c-0.986,0.737-2.149,1.363-3.437,1.688
	v0.004h-0.015 M63.973,28.103c0-1.859,0-4.634,0-8.787C63.973,6.051,50.754,0,38.65,0h-0.316C26.231,0,13.013,6.051,13.013,19.316
	c0,4.155,0,6.928,0,8.787H63.973L63.973,28.103z"/>
<path d="M31.488,53.779c0-9.686,7.971-17.566,17.769-17.566c9.797,0,17.767,7.88,17.767,17.566c0,3.564-1.082,6.881-2.934,9.653
	l7.264,6.969l-0.007,0.007c0.646,0.648,1.048,1.538,1.048,2.521c0,1.98-1.625,3.587-3.628,3.587c-1.075,0-2.038-0.464-2.702-1.198
	l-7.119-6.825c-2.789,1.802-6.116,2.853-9.688,2.853C39.459,71.344,31.488,63.464,31.488,53.779L31.488,53.779z M34.241,53.779
	c0,8.186,6.736,14.844,15.016,14.844c8.278,0,15.015-6.658,15.015-14.844s-6.736-14.845-15.015-14.845
	C40.978,38.934,34.241,45.593,34.241,53.779L34.241,53.779z"/>
<path d="M26.431,56.604l-8.38,1.356c-1.318,0.21-2.537-0.816-2.725-2.3c-0.188-1.479,0.726-2.852,2.038-3.065l8.385-1.354
	c0.117-0.018,0.233-0.027,0.347-0.027c1.176,0,2.204,0.975,2.377,2.323C28.659,55.02,27.746,56.393,26.431,56.604L26.431,56.604z"/>
<path d="M49.049,44.792c5.876,0,10.64,3.909,10.64,8.735c0,4.82-4.764,8.732-10.64,8.732c-5.874,0-10.636-3.912-10.636-8.732
	C38.413,48.701,43.175,44.792,49.049,44.792L49.049,44.792z"/>
<path fill="#FFFFFF" d="M49.127,48.112c4.08,0,7.389,2.714,7.389,6.065c0,3.346-3.309,6.062-7.389,6.062
	c-4.077,0-7.384-2.716-7.384-6.062C41.743,50.826,45.05,48.112,49.127,48.112L49.127,48.112z"/>
<path d="M49.516,53.991c2.25,0,4.074,1.497,4.074,3.345c0,1.845-1.824,3.342-4.074,3.342s-4.073-1.497-4.073-3.342
	C45.442,55.488,47.266,53.991,49.516,53.991L49.516,53.991z"/>
<path fill="#0090CE" d="M-156.623,101.361c30.059,0,54.427-24.366,54.427-54.423c0-30.057-24.368-54.423-54.427-54.423
	s-54.426,24.366-54.426,54.423C-211.049,76.995-186.682,101.361-156.623,101.361L-156.623,101.361z"/>
<path fill="#2A2427" d="M-138.74,69.643c-0.031-0.089-0.113-0.167-0.206-0.182c-0.051-0.012-0.139-0.009-0.224,0.067
	c0,0,0,0-0.003,0c-0.017,0.016-0.035,0.03-0.048,0.048c0,0.002,0,0.002-0.002,0.002c0,0,0,0.003-0.003,0.003
	c-0.889,1.147-2.356,2.596-4.299,2.977c-1.771,0.354-3.499-0.129-4.996-1.399c-0.417-0.347-0.826-0.728-1.223-1.095
	c-1.524-1.412-3.102-2.875-5.21-2.754c-1.785,0.104-3.383,1.489-4.067,3.444c-0.685-1.955-2.285-3.341-4.068-3.444
	c-2.11-0.118-3.687,1.342-5.212,2.754c-0.396,0.367-0.805,0.748-1.222,1.097c-1.497,1.269-3.222,1.751-4.995,1.397
	c-1.944-0.381-3.413-1.831-4.303-2.979c0-0.002,0-0.002,0-0.002c-0.015-0.018-0.032-0.032-0.05-0.048h-0.002
	c-0.086-0.076-0.174-0.079-0.224-0.067c-0.093,0.015-0.176,0.093-0.203,0.182c-0.121,0.384,1.128,3.961,3.024,5.874
	c2.214,2.233,4.558,3.568,7.167,4.075c2.938,0.577,5.628,0.145,7.567-1.212c1.215-0.853,2.074-2.021,2.521-3.425
	c0.444,1.403,1.304,2.572,2.519,3.425c1.379,0.965,3.137,1.463,5.097,1.463c0.796,0,1.625-0.084,2.474-0.251
	c2.606-0.507,4.952-1.842,7.164-4.075C-139.868,73.604-138.623,70.027-138.74,69.643L-138.74,69.643z"/>
<path d="M-178.325,32.642c-1.116-0.302-2.118-0.883-2.94-1.545c-0.585-0.473-1.055-0.96-1.361-1.31
	c-0.153-0.177-0.265-0.318-0.333-0.407c-0.032-0.044-0.055-0.073-0.066-0.088l-0.001,0.001c-0.956-1.388-2.858-1.741-4.252-0.791
	c-1.398,0.953-1.754,2.854-0.799,4.245c0.112,0.158,1.099,1.593,2.96,3.1c1.703,1.374,4.261,2.853,7.529,3.082l41.417-0.128
	c2.734-0.447,4.906-1.741,6.41-2.954c1.861-1.507,2.85-2.942,2.962-3.1c0.955-1.391,0.597-3.292-0.8-4.245
	c-1.395-0.951-3.298-0.597-4.253,0.792l-0.002-0.002c-0.075,0.11-0.831,1.107-1.985,1.982c-0.802,0.609-1.745,1.125-2.79,1.393
	v0.004h-0.012 M-136.694,30.905c0-1.536,0-3.827,0-7.257c0-10.955-10.729-15.953-20.552-15.953h-0.256
	c-9.822,0-20.55,4.998-20.55,15.953c0,3.432,0,5.722,0,7.257H-136.694L-136.694,30.905z"/>
<path d="M-163.058,52.11c0-7.999,6.469-14.507,14.42-14.507s14.419,6.508,14.419,14.507c0,2.944-0.878,5.684-2.381,7.973
	l5.895,5.756l-0.006,0.006c0.525,0.535,0.852,1.27,0.852,2.082c0,1.636-1.319,2.962-2.945,2.962c-0.872,0-1.653-0.384-2.191-0.99
	l-5.778-5.637c-2.265,1.487-4.964,2.355-7.863,2.355C-156.589,66.617-163.058,60.11-163.058,52.11L-163.058,52.11z M-160.824,52.11
	c0,6.76,5.467,12.26,12.186,12.26s12.187-5.5,12.187-12.26s-5.468-12.26-12.187-12.26S-160.824,45.35-160.824,52.11L-160.824,52.11z
	"/>
<path d="M-167.163,54.444l-6.801,1.12c-1.069,0.173-2.059-0.674-2.21-1.899c-0.153-1.221,0.588-2.354,1.654-2.531l6.805-1.118
	c0.094-0.015,0.188-0.023,0.28-0.023c0.955,0,1.789,0.807,1.929,1.92C-165.354,53.135-166.095,54.269-167.163,54.444
	L-167.163,54.444z"/>
<path d="M-148.807,44.688c4.77,0,8.635,3.229,8.635,7.214c0,3.981-3.865,7.212-8.635,7.212c-4.768,0-8.631-3.23-8.631-7.212
	C-157.438,47.917-153.574,44.688-148.807,44.688L-148.807,44.688z"/>
<path fill="#FFFFFF" d="M-148.742,47.43c3.312,0,5.995,2.241,5.995,5.009c0,2.764-2.684,5.007-5.995,5.007
	c-3.311,0-5.992-2.243-5.992-5.007C-154.734,49.671-152.053,47.43-148.742,47.43L-148.742,47.43z"/>
<path d="M-148.428,52.286c1.826,0,3.308,1.236,3.308,2.762c0,1.523-1.481,2.761-3.308,2.761s-3.305-1.237-3.305-2.761
	C-151.732,53.522-150.254,52.286-148.428,52.286L-148.428,52.286z"/>
</svg>
