<svg xmlns="http://www.w3.org/2000/svg" width="24" height="24" fill="currentColor" viewBox="0 0 24 24"><path d="M17.8 19.9s0-.1 0 0c-.1-.1-.1-.1-.1 0-.3.3-.7.8-1.3.9-.5.1-1.1 0-1.5-.4-.1-.1-.3-.2-.4-.3-.5-.4-1-.9-1.6-.8-.6 0-1 .5-1.3 1.1-.2-.6-.7-1-1.3-1.1-.7 0-1.1.4-1.6.8-.1.1-.3.2-.4.3-.5.4-1 .5-1.5.4-.6-.1-1.1-.6-1.3-.9h-.1s-.1 0-.1.1.3 1.2.9 1.8c.7.7 1.4 1.1 2.2 1.2.9.2 1.7 0 2.3-.4.4-.3.6-.6.8-1 .1.4.4.8.8 1 .4.3 1 .4 1.6.4.2 0 .5 0 .8-.1.8-.2 1.5-.6 2.2-1.2.6-.6.9-1.7.9-1.8zM5.5 8.6c-.3-.1-.6-.3-.9-.5-.2-.1-.3-.3-.4-.4 0-.1-.1-.1-.1-.1-.3-.4-.9-.5-1.4-.3-.4.3-.5.9-.2 1.3 0 0 .3.5.9.9.5.4 1.3.9 2.3.9h12.9c.8-.1 1.5-.5 2-.9.6-.5.9-.9.9-.9.3-.4.2-1-.2-1.3-.4-.3-1-.2-1.3.2l-.6.6c-.2.2-.5.3-.9.4"/><path d="M18.4 8.1V5.9C18.4 2.6 15.1 1 12 1 9 1 5.6 2.5 5.6 5.9v2.2h12.8zM20.3 18.7L18.5 17c.5-.7.7-1.5.7-2.4 0-2.4-2-4.4-4.5-4.4s-4.5 2-4.5 4.4c0 2.4 2 4.4 4.5 4.4.9 0 1.7-.3 2.4-.7L19 20c.2.2.4.3.7.3.5 0 .9-.4.9-.9 0-.3-.1-.5-.3-.7zm-5.6-.4c-2.1 0-3.8-1.7-3.8-3.7 0-2.1 1.7-3.7 3.8-3.7s3.8 1.7 3.8 3.7-1.7 3.7-3.8 3.7zM9 15.3l-2.1.3c-.3.1-.6-.2-.7-.6 0-.4.2-.7.5-.8l2.1-.3h.1c.3 0 .6.2.6.6 0 .4-.2.7-.5.8z"/><path d="M14.7 12.3c-1.5 0-2.7 1-2.7 2.2 0 1.2 1.2 2.2 2.7 2.2s2.7-1 2.7-2.2c0-1.2-1.2-2.2-2.7-2.2zm0 3.9c-1 0-1.9-.7-1.9-1.5s.8-1.5 1.9-1.5c1 0 1.9.7 1.9 1.5s-.9 1.5-1.9 1.5z"/><path d="M14.8 14.6c.6 0 1 .4 1 .8 0 .5-.5.8-1 .8-.6 0-1-.4-1-.8s.4-.8 1-.8z"/></svg>
